# xmcd CD database file
#
# Track frame offsets:
#	150
#	10561
#	21788
#	33990
#	46291
#	63635
#	76344
#	88230
#	100448
#	112791
#	128223
#	143941
#
# Disc length: 2061 seconds
#
# Revision: 1
# Processed by: cddbd v1.5.2PL0 Copyright (c) Steve Scherf et al.
# Submitted via: CDex 1.77
#
DISCID=96080b0c
DTITLE=Lawson and Williams - Chapter 3
DYEAR=2017
DGENRE=Country
TTITLE0=Til Death Do Us Part
TTITLE1=I'll Still Write Your Name In The Sand
TTITLE2=Talk To Me Old Lonesome Heart
TTITLE3=I'm Sorry I Caused You To Cry
TTITLE4=Abigail
TTITLE5=I Want To Be Loved, But Only By You
TTITLE6=I'm Getting Over You
TTITLE7=I'll Make It Through
TTITLE8=What Am I Gonna Do With This Broken Heart
TTITLE9=Big Fool Of The Year
TTITLE10=There's Absolutely Nothing My God Can't Do
TTITLE11=I Feel Better Now
EXTD=YEAR: 2017
EXTT0=
EXTT1=
EXTT2=
EXTT3=
EXTT4=
EXTT5=
EXTT6=
EXTT7=
EXTT8=
EXTT9=
EXTT10=
EXTT11=
PLAYORDER=
